<svg width="34" height="26" viewBox="0 0 34 26" fill="none" xmlns="http://www.w3.org/2000/svg">
<path d="M31.998 14.6893C32.931 14.6893 33.6874 13.933 33.6874 13C33.6874 12.067 32.931 11.3107 31.998 11.3107V14.6893ZM0.904566 11.8055C0.244835 12.4652 0.244835 13.5348 0.904566 14.1945L11.6555 24.9455C12.3152 25.6052 13.3849 25.6052 14.0446 24.9455C14.7043 24.2857 14.7043 23.2161 14.0446 22.5564L4.48821 13L14.0446 3.44362C14.7043 2.78389 14.7043 1.71426 14.0446 1.05453C13.3849 0.394796 12.3152 0.394796 11.6555 1.05453L0.904566 11.8055ZM31.998 11.3107L2.09911 11.3107V14.6893L31.998 14.6893V11.3107Z" fill="black"/>
</svg>
