<svg width="30" height="27" viewBox="0 0 30 27" fill="none" xmlns="http://www.w3.org/2000/svg">
<path fill-rule="evenodd" clip-rule="evenodd" d="M19.6567 21.1687C17.5993 22.8535 14.9688 23.8644 12.1021 23.8644C5.51215 23.8644 0.169922 18.5222 0.169922 11.9322C0.169922 5.34222 5.51215 0 12.1021 0C18.6921 0 24.0343 5.34222 24.0343 11.9322C24.0343 14.0594 23.4777 16.0566 22.5021 17.7861L29.4212 23.4842L26.6114 26.8961L19.6567 21.1687ZM20.3396 11.9126C20.3396 16.4727 16.6429 20.1694 12.0828 20.1694C7.52268 20.1694 3.82598 16.4727 3.82598 11.9126C3.82598 7.3525 7.52268 3.6558 12.0828 3.6558C16.6429 3.6558 20.3396 7.3525 20.3396 11.9126Z" fill="#BDBDBD"/>
</svg>
